<?xml version="1.0" standalone="no"?>
<!DOCTYPE svg PUBLIC "-//W3C//DTD SVG 20010904//EN"
 "http://www.w3.org/TR/2001/REC-SVG-20010904/DTD/svg10.dtd">
<svg version="1.0" xmlns="http://www.w3.org/2000/svg"
 width="4167.000000pt" height="4167.000000pt" viewBox="0 0 4167.000000 4167.000000"
 preserveAspectRatio="xMidYMid meet">
<metadata>
Created by potrace 1.11, written by Peter Selinger 2001-2013
</metadata>
<g transform="translate(0.000000,4167.000000) scale(0.100000,-0.100000)"
fill="#000000" stroke="none">
<path d="M20727 28085 c-1 -2 -54 -5 -117 -9 -63 -3 -126 -8 -140 -10 -14 -3
-51 -7 -83 -11 -31 -3 -92 -13 -134 -21 -42 -8 -89 -17 -105 -19 -200 -36
-540 -149 -764 -255 -195 -93 -428 -234 -596 -363 -121 -93 -119 -91 -237
-198 -488 -444 -827 -1000 -1001 -1641 -25 -92 -24 -87 -49 -213 -21 -109 -28
-152 -37 -223 -2 -26 -7 -57 -9 -69 -6 -39 -18 -265 -18 -353 0 -89 11 -303
17 -336 2 -10 7 -45 11 -78 9 -75 27 -173 60 -316 53 -236 216 -634 341 -832
13 -21 24 -40 24 -42 0 -10 107 -174 186 -286 211 -298 488 -606 856 -952 84
-78 297 -267 414 -365 27 -23 59 -50 70 -60 53 -45 389 -315 719 -579 599
-479 804 -655 1074 -924 438 -437 663 -797 747 -1195 24 -113 24 -349 0 -450
-2 -11 -9 -41 -15 -67 -27 -116 -102 -275 -180 -383 -221 -302 -557 -474 -926
-473 -465 0 -877 277 -1055 709 -29 69 -57 163 -66 219 -58 354 25 668 247
941 69 86 99 153 106 238 10 129 -51 261 -152 331 -98 67 -200 85 -318 54 -99
-25 -170 -85 -288 -244 -86 -116 -234 -402 -254 -490 -2 -8 -12 -42 -23 -75
-58 -176 -83 -365 -77 -585 2 -91 6 -181 10 -200 3 -19 13 -73 21 -120 99
-566 501 -1084 1039 -1341 206 -99 482 -171 687 -179 150 -6 324 0 398 15 13
2 40 7 60 10 122 18 312 78 447 140 362 169 665 445 857 784 81 141 154 323
190 471 17 69 20 80 31 150 4 25 10 54 12 65 12 49 11 415 -2 505 -55 391
-183 711 -431 1072 -141 205 -276 362 -533 619 -311 310 -524 493 -1196 1029
-223 177 -188 149 -350 280 -166 133 -416 341 -476 394 -25 23 -59 52 -76 66
-198 162 -601 568 -780 785 -397 483 -620 969 -671 1460 -14 134 -5 533 13
588 2 7 6 30 9 52 11 84 48 245 82 355 158 509 459 953 879 1296 165 135 457
309 628 375 29 11 62 24 75 29 57 25 73 31 162 59 88 27 248 68 295 76 35 5
169 26 200 30 17 3 91 7 165 10 196 8 228 13 295 44 184 86 264 313 175 496
-36 74 -95 132 -175 170 -65 32 -83 36 -169 38 -53 2 -97 3 -99 2z"/>
<path d="M20747 26584 c-1 -1 -36 -4 -77 -8 -41 -3 -86 -8 -100 -10 -14 -3
-42 -7 -62 -10 -21 -3 -57 -11 -80 -16 -24 -6 -54 -13 -68 -16 -67 -14 -246
-80 -340 -126 -585 -285 -989 -851 -1058 -1485 -14 -135 -8 -400 13 -508 102
-529 463 -1038 1163 -1643 43 -37 79 -69 82 -72 3 -3 26 -22 52 -43 26 -21 53
-44 60 -50 7 -7 99 -82 203 -166 105 -84 198 -158 207 -166 9 -8 114 -90 232
-183 118 -93 258 -205 312 -248 185 -150 379 -309 409 -335 17 -14 73 -63 125
-109 248 -216 540 -500 716 -695 452 -504 740 -1009 873 -1530 26 -103 57
-279 68 -380 15 -148 9 -547 -11 -650 -2 -11 -7 -42 -10 -70 -31 -213 -139
-540 -252 -760 -141 -275 -276 -459 -503 -686 -358 -357 -776 -588 -1281 -708
-25 -6 -61 -13 -80 -16 -19 -3 -42 -8 -50 -10 -8 -2 -37 -7 -65 -10 -27 -4
-61 -8 -75 -11 -60 -9 -213 -18 -310 -18 -514 1 -1012 146 -1437 420 -285 184
-570 461 -764 744 -207 301 -362 686 -419 1040 -7 41 -14 84 -16 95 -18 98
-25 454 -11 605 6 71 17 148 42 285 29 166 151 515 231 661 14 27 42 78 62
114 68 124 157 250 317 450 127 158 116 373 -26 505 -27 26 -75 58 -107 73
-49 23 -70 27 -152 27 -84 0 -102 -3 -154 -28 -84 -41 -185 -149 -339 -366
-136 -189 -281 -450 -370 -663 -72 -175 -169 -492 -192 -633 -3 -16 -8 -41
-10 -55 -3 -14 -8 -36 -10 -50 -6 -30 -11 -65 -20 -145 -4 -33 -9 -69 -11 -79
-5 -30 -17 -261 -17 -351 0 -86 11 -304 17 -345 2 -14 8 -52 12 -85 4 -33 8
-67 9 -75 9 -57 17 -102 26 -146 5 -28 12 -62 14 -76 18 -100 123 -444 159
-523 8 -16 26 -59 41 -95 63 -150 185 -375 288 -530 207 -309 519 -640 798
-843 112 -82 227 -159 294 -197 17 -10 59 -34 95 -55 250 -143 575 -266 895
-340 50 -12 173 -35 205 -39 19 -3 53 -7 75 -11 147 -22 263 -30 465 -30 288
0 427 14 715 71 172 35 576 163 610 195 5 5 15 9 23 9 17 0 305 144 344 171
14 11 29 19 33 19 11 0 235 149 319 212 602 455 1022 1068 1236 1803 24 85 36
137 66 280 2 10 6 35 9 55 3 20 7 46 10 59 2 13 7 49 11 80 3 31 8 65 10 76 7
34 16 233 18 360 2 175 -18 426 -44 570 -5 28 -12 66 -15 85 -73 440 -305 985
-619 1450 -39 58 -73 107 -76 110 -3 3 -47 61 -99 130 -52 69 -151 190 -220
270 -129 150 -521 548 -671 681 -47 42 -110 98 -140 125 -31 27 -80 69 -109
94 -29 25 -59 50 -65 55 -69 65 -390 323 -1041 840 -394 313 -615 504 -830
720 -147 147 -215 219 -265 285 -14 18 -37 47 -51 64 -32 39 -106 148 -137
201 -112 197 -160 361 -156 540 4 229 61 415 189 611 131 202 338 364 565 446
94 33 89 32 145 43 73 14 79 15 160 20 151 10 182 16 241 44 170 81 250 273
189 453 -42 125 -147 218 -275 245 -18 4 -159 10 -163 7z"/>
<path d="M20793 25008 c-99 -15 -183 -70 -237 -156 -46 -73 -55 -181 -24 -274
30 -87 110 -166 198 -195 162 -53 323 14 398 166 23 48 27 68 26 141 0 69 -5
95 -24 135 -46 94 -139 165 -236 181 -21 3 -41 7 -44 8 -3 1 -29 -1 -57 -6z"/>
<path d="M21669 24225 c-61 -22 -100 -45 -145 -87 -81 -74 -117 -160 -116
-273 2 -177 94 -287 433 -515 12 -8 34 -24 48 -35 14 -11 49 -36 76 -55 61
-41 452 -328 480 -351 11 -10 81 -66 155 -125 477 -380 910 -806 1246 -1224
436 -541 754 -1114 937 -1685 51 -160 82 -265 93 -315 4 -19 9 -39 10 -45 6
-23 36 -162 40 -185 6 -32 22 -126 28 -165 3 -16 8 -50 11 -75 3 -25 7 -61 10
-80 19 -148 27 -299 28 -490 0 -144 -9 -375 -18 -418 -1 -10 -6 -49 -10 -87
-3 -39 -8 -79 -10 -90 -3 -11 -7 -38 -10 -60 -25 -179 -88 -444 -151 -637 -27
-78 -48 -145 -49 -148 -3 -15 -71 -181 -115 -280 -138 -310 -365 -679 -561
-915 -237 -284 -444 -486 -709 -690 -47 -36 -90 -69 -96 -74 -18 -15 -278
-186 -294 -194 -8 -4 -24 -13 -35 -20 -223 -137 -610 -307 -890 -392 -217 -66
-552 -137 -710 -151 -33 -3 -71 -7 -85 -10 -107 -18 -563 -25 -740 -10 -112 9
-122 10 -290 32 -67 9 -300 53 -362 70 -35 9 -71 17 -80 19 -89 18 -378 114
-542 181 -186 76 -445 208 -586 298 -391 250 -667 483 -965 816 -146 163 -383
495 -475 665 -12 22 -30 55 -41 74 -28 48 -101 193 -139 276 -171 376 -289
792 -339 1205 -21 168 -26 243 -36 495 -2 55 -5 109 -8 120 -17 66 -73 152
-125 194 -168 133 -414 101 -536 -69 -31 -43 -41 -67 -64 -145 -12 -42 -1
-511 12 -534 2 -3 7 -42 11 -86 7 -83 10 -110 18 -160 3 -16 8 -50 12 -75 3
-25 20 -112 36 -195 213 -1075 794 -2056 1644 -2776 22 -19 42 -36 45 -39 3
-3 34 -28 70 -55 36 -28 67 -52 70 -55 39 -40 333 -239 480 -327 193 -114 453
-245 605 -305 28 -11 64 -26 80 -33 105 -47 467 -164 624 -201 311 -74 551
-111 836 -132 205 -15 777 -6 870 13 18 4 60 9 166 20 38 4 256 41 299 50 14
4 36 8 50 11 14 3 63 14 110 25 47 11 92 22 100 24 36 8 273 79 355 107 396
134 808 340 1170 587 80 54 281 202 322 237 12 11 32 28 45 38 335 273 685
657 935 1026 70 103 163 250 163 256 0 3 8 18 19 32 48 70 205 380 276 547
107 251 236 647 271 828 2 12 6 33 9 47 25 116 43 211 50 260 3 25 10 72 15
105 5 33 11 85 15 115 3 30 8 66 10 80 26 150 26 722 0 985 -16 170 -53 428
-70 485 -2 8 -6 31 -9 50 -38 244 -200 764 -328 1050 -171 384 -322 658 -547
990 -109 161 -294 409 -369 495 -10 11 -38 45 -62 75 -25 30 -47 57 -50 60 -3
3 -41 46 -84 95 -200 226 -528 552 -746 741 -25 21 -47 42 -50 45 -11 13 -343
287 -410 339 -25 19 -47 37 -50 40 -6 7 -332 250 -441 328 -138 99 -284 202
-335 237 -28 19 -82 62 -119 95 -97 86 -159 113 -265 116 -51 1 -99 -3 -121
-11z"/>
<path d="M20848 18895 c-2 -1 -26 -5 -54 -8 -144 -15 -263 -136 -280 -285 -9
-85 21 -182 77 -246 157 -178 442 -135 542 82 32 69 30 198 -3 267 -45 92
-133 160 -237 183 -23 5 -43 8 -45 7z"/>
</g>
</svg>
